{"title":"The Interview [2014] (No Cinavia) 1080p","uid":11736192,"size":4234454049,"categoryP":"video","categoryS":"hd___movies","magnet":"?xt=urn:btih:d88ed6a0b3dffa37e670fb713b956e9e9137a927&amp;dn=The+Interview+%5B2014%5D+%28No+Cinavia%29+1080p&amp;tr=udp%3A%2F%2Ftracker.openbittorrent.com%3A80&amp;tr=udp%3A%2F%2Fopen.demonii.com%3A1337&amp;tr=udp%3A%2F%2Ftracker.coppersurfer.tk%3A6969&amp;tr=udp%3A%2F%2Fexodus.desync.com%3A6969","seeders":5,"leechers":0,"uploader":"AlienMethod","files":7,"time":1425577925,"description":"x264/mp4\nCinavia Removed/CinExHD\nAC35.1@320kbps (audio 1)\nAAC2.0@128kbps (audio 2)\nEnglish Subs Incl.\n\n\n&quot;Dave Skylark and producer Aaron Rapoport run the celebrity tabloid show\n&quot;Skylark Tonight.&quot; When they land an interview with a surprise fan, North Korean\ndictator Kim Jong-un, they are recruited by the CIA to turn their trip to Pyongyang \ninto an assassination mission.&quot;\n\n\n\nGeneral\nComplete name : F:TorrentsThe Interview [2014] (NoCinavia) 1080p\nThe Interview [2014] (NoCinavia) 1080p.mp4\nFormat : MPEG-4\nFormat profile : Base Media\nCodec ID : isom\nFile size : 3.94 GiB\nDuration : 1h 52mn\nOverall bit rate mode : Variable\nOverall bit rate : 5 032 Kbps\nEncoded date : UTC 2015-03-05 14:50:26\nTagged date : UTC 2015-03-05 14:50:26\nWriting application : My MP4Box GUI 0.6.0.6 \n\nVideo\nID : 1\nFormat : AVC\nFormat/Info : Advanced Video Codec\nFormat profile : &lt;a class=&quot;__cf_email__&quot; href=&quot;/cdn-cgi/l/email-protection&quot; data-cfemail=&quot;abe3c2ccc3ebe79f859b&quot;&gt;[email&amp;#160;protected]&lt;/a&gt;&lt;script cf-hash='f9e31' type=&quot;text/javascript&quot;&gt;\n/* &lt;![CDATA[ */!function(){try{var t=&quot;currentScript&quot;in document?document.currentScript:function(){for(var t=document.getElementsByTagName(&quot;script&quot;),e=t.length;e--;)if(t[e].getAttribute(&quot;cf-hash&quot;))return t[e]}();if(t&amp;&amp;t.previousSibling){var e,r,n,i,c=t.previousSibling,a=c.getAttribute(&quot;data-cfemail&quot;);if(a){for(e=&quot;&quot;,r=parseInt(a.substr(0,2),16),n=2;a.length-n;n+=2)i=parseInt(a.substr(n,2),16)^r,e+=String.fromCharCode(i);e=document.createTextNode(e),c.parentNode.replaceChild(e,c)}}}catch(u){}}();/* ]]&gt; */&lt;/script&gt;\nFormat settings, CABAC : Yes\nFormat settings, ReFrames : 4 frames\nCodec ID : avc1\nCodec ID/Info : Advanced Video Coding\nDuration : 1h 52mn\nBit rate mode : Variable\nBit rate : 4 599 Kbps\nMaximum bit rate : 24.0 Mbps\nWidth : 1 920 pixels\nHeight : 800 pixels\nDisplay aspect ratio : 2.40:1\nFrame rate mode : Constant\nFrame rate : 23.976 fps\nColor space : YUV\nChroma subsampling : 4:2:0\nBit depth : 8 bits\nScan type : Progressive\nBits/(Pixel*Frame) : 0.125\nStream size : 3.60 GiB (91%)\nTitle : The Interview (CinEx)_track1_und.h264\nWriting library : x264 core 142 r2431 ac76440\nEncoded date : UTC 2015-03-05 14:50:26\nTagged date : UTC 2015-03-05 14:50:47\nColor primaries : BT.709\nTransfer characteristics : BT.709\nMatrix coefficients : BT.709\n\nAudio #1\nID : 2\nFormat : AC-3\nFormat/Info : Audio Coding 3\nMode extension : CM (complete main)\nFormat settings, Endianness : Big\nCodec ID : ac-3\nDuration : 1h 52mn\nBit rate mode : Constant\nBit rate : 320 Kbps\nChannel(s) : 6 channels\nChannel positions : Front: L C R, Side: L R, LFE\nSampling rate : 48.0 KHz\nBit depth : 16 bits\nCompression mode : Lossy\nStream size : 257 MiB (6%)\nTitle : AC35.1(CinEx)320kbps.ac3\nEncoded date : UTC 2015-03-05 14:50:43\nTagged date : UTC 2015-03-05 14:50:47\n\nAudio #2\nID : 3\nFormat : AAC\nFormat/Info : Advanced Audio Codec\nFormat profile : LC\nCodec ID : 40\nDuration : 1h 52mn\nBit rate mode : Variable\nBit rate : 110 Kbps\nMaximum bit rate : 176 Kbps\nChannel(s) : 2 channels\nChannel positions : Front: L R\nSampling rate : 48.0 KHz\nCompression mode : Lossy\nStream size : 88.7 MiB (2%)\nTitle : AAC2.0(CinEx)128kbps.m4a\nEncoded date : UTC 2015-03-05 14:50:46\nTagged date : UTC 2015-03-05 14:50:47\n\nm/ AM m/","torrent":{"xt":"urn:btih:d88ed6a0b3dffa37e670fb713b956e9e9137a927","amp;dn":"The+Interview+%5B2014%5D+%28No+Cinavia%29+1080p","amp;tr":["udp%3A%2F%2Ftracker.openbittorrent.com%3A80","udp%3A%2F%2Fopen.demonii.com%3A1337","udp%3A%2F%2Ftracker.coppersurfer.tk%3A6969","udp%3A%2F%2Fexodus.desync.com%3A6969"],"infoHash":"d88ed6a0b3dffa37e670fb713b956e9e9137a927","infoHashBuffer":{"type":"Buffer","data":[216,142,214,160,179,223,250,55,230,112,251,113,59,149,110,158,145,55,169,39]},"announce":[],"urlList":[]}}